<?xml version="1.0" standalone="no"?>
<!DOCTYPE svg PUBLIC "-//W3C//DTD SVG 20010904//EN"
 "http://www.w3.org/TR/2001/REC-SVG-20010904/DTD/svg10.dtd">
<svg version="1.0" xmlns="http://www.w3.org/2000/svg"
 width="300.000000pt" height="283.000000pt" viewBox="0 0 300.000000 283.000000"
 preserveAspectRatio="xMidYMid meet">
<metadata>
Created by potrace 1.10, written by Peter Selinger 2001-2011
</metadata>
<g transform="translate(0.000000,283.000000) scale(0.100000,-0.100000)"
fill="#000000" stroke="none">
<path d="M850 1810 c0 -554 2 -665 14 -688 18 -33 343 -358 351 -350 13 13 7
188 -9 235 -15 45 -86 133 -107 133 -5 0 -21 19 -36 43 l-27 42 -1 395 c0 257
3 395 10 395 6 -1 152 -145 325 -321 173 -177 318 -322 323 -322 12 -3 7 221
-6 250 -9 22 -822 848 -834 848 -2 0 -3 -297 -3 -660z m428 197 c376 -378 368
-370 381 -394 6 -12 11 -57 11 -100 l0 -78 -297 297 c-164 164 -301 300 -305
304 -15 13 -47 -9 -57 -39 -5 -19 -9 -183 -7 -402 l2 -371 26 -44 c15 -25 52
-69 82 -99 39 -36 59 -66 67 -95 13 -46 18 -131 8 -141 -7 -7 -250 229 -286
278 l-23 31 0 625 0 625 66 -64 c36 -36 186 -186 332 -333z"/>
<path d="M1666 2222 c-3 -6 -4 -55 -2 -109 5 -127 24 -173 99 -238 90 -78 87
-58 87 -498 0 -287 -3 -388 -12 -393 -10 -7 -277 259 -574 569 -36 38 -68 66
-71 63 -11 -11 -2 -229 10 -253 15 -27 815 -833 828 -833 5 0 9 257 9 655 0
550 -2 660 -14 683 -22 40 -352 366 -360 354z m190 -214 c72 -73 136 -143 142
-155 14 -25 17 -1253 4 -1253 -4 0 -179 172 -389 382 -243 244 -383 392 -387
408 -12 60 -15 139 -6 145 5 3 110 -96 232 -221 336 -343 348 -354 377 -354
49 0 50 11 51 425 l1 386 -25 42 c-13 23 -45 59 -71 81 -61 51 -84 99 -92 192
-6 73 -5 76 13 66 10 -6 78 -71 150 -144z"/>
</g>
</svg>
